<svg width="45" height="20" viewBox="0 0 45 20" fill="none" xmlns="http://www.w3.org/2000/svg">
<path d="M16.995 0.25614L11.1345 14.2839H7.31123L4.42723 3.08842C4.25238 2.40053 4.10044 2.14737 3.56836 1.85649C2.69865 1.38246 1.26243 0.939123 0 0.663333L0.0851525 0.25614H6.24061C7.02395 0.25614 7.7293 0.779474 7.90869 1.68561L9.43252 9.80368L13.1946 0.25614H16.995ZM22.1636 0.25614L19.1731 14.2839H15.5558L18.5466 0.25614H22.1638H22.1636ZM31.9756 9.70386C31.9906 6.00228 26.8745 5.79684 26.9079 4.14298C26.9201 3.64018 27.3974 3.10491 28.4423 2.96807C28.9599 2.90088 30.3898 2.84737 32.0095 3.59614L32.6431 0.619649C31.7729 0.30386 30.653 0 29.2599 0C25.6842 0 23.169 1.90561 23.1489 4.63649C23.1255 6.65649 24.9455 7.78228 26.3142 8.45509C27.7241 9.14211 28.1969 9.58368 28.1904 10.1977C28.1802 11.1389 27.0643 11.5556 26.027 11.5711C24.2078 11.6 23.1533 11.0777 22.3121 10.6846L21.6555 13.7596C22.5018 14.1488 24.0614 14.4868 25.6769 14.504C29.4782 14.504 31.9644 12.6204 31.9756 9.70403V9.70386ZM41.4175 14.2839H44.7619L41.8401 0.25614H38.7545C38.0586 0.25614 37.4738 0.661404 37.2143 1.28439L31.7869 14.2839H35.5852L36.3386 12.1884H40.9792L41.4177 14.2839H41.4175ZM37.3802 9.31386L39.2847 4.04597L40.3787 9.31386H37.38H37.3802ZM26.793 18.1451H25.3232V19.5175H26.9671V19.9302H24.828V16.1228H26.8828V16.5354H25.3232V17.7384H26.7928V18.1454L26.793 18.1451ZM27.7265 15.9195H28.2217V19.93H27.7265V15.9195ZM29.4712 18.6533C29.4824 19.3258 29.9048 19.6025 30.4056 19.6025C30.7605 19.6025 30.98 19.5404 31.1604 19.4614L31.2503 19.8174C31.0758 19.8963 30.7719 19.9923 30.3381 19.9923C29.4995 19.9923 28.9985 19.4332 28.9985 18.6082C28.9985 17.7837 29.4824 17.1395 30.2764 17.1395C31.1716 17.1395 31.4024 17.9193 31.4024 18.4219C31.4024 18.5235 31.3966 18.5968 31.3853 18.6535H29.4712V18.6533ZM30.9237 18.2975C30.9294 17.987 30.7943 17.4954 30.2368 17.4954C29.7301 17.4954 29.5161 17.953 29.4766 18.2975H30.9237ZM34.0979 19.834C33.9685 19.8963 33.6812 19.9925 33.3154 19.9925C32.4935 19.9925 31.9586 19.4332 31.9586 18.597C31.9586 17.7553 32.5326 17.1396 33.4223 17.1396C33.715 17.1396 33.9739 17.2128 34.1091 17.2865L33.9968 17.6649C33.8781 17.6028 33.6924 17.5347 33.4223 17.5347C32.7972 17.5347 32.4597 18.0037 32.4597 18.5689C32.4597 19.2014 32.865 19.5912 33.4055 19.5912C33.687 19.5912 33.8727 19.5235 34.0135 19.4614L34.0979 19.834ZM35.4876 16.5407V17.196H36.1968V17.5742H35.4876V19.0488C35.4876 19.3881 35.5834 19.5798 35.8592 19.5798C35.9942 19.5798 36.0732 19.5688 36.1465 19.5458L36.169 19.9247C36.0732 19.9584 35.9213 19.9923 35.7298 19.9923C35.4988 19.9923 35.3129 19.9132 35.1949 19.7835C35.0598 19.6307 35.0035 19.3881 35.0035 19.066V17.5742H34.581V17.196H35.0035V16.6877L35.4878 16.5409L35.4876 16.5407ZM36.8887 18.0491C36.8887 17.727 36.8828 17.4503 36.8661 17.196H37.2998L37.3225 17.7381H37.3389C37.4631 17.3712 37.7668 17.1395 38.0989 17.1395C38.1497 17.1395 38.1893 17.1453 38.2344 17.1507V17.6198C38.1837 17.6082 38.1331 17.6082 38.0651 17.6082C37.7164 17.6082 37.4683 17.8681 37.401 18.2412C37.3894 18.3179 37.3837 18.3953 37.3841 18.4728V19.9304H36.8887V18.0491ZM41.2794 18.5404C41.2794 19.5516 40.5754 19.9923 39.9226 19.9923C39.1904 19.9923 38.6164 19.4498 38.6164 18.5858C38.6164 17.6761 39.2188 17.1396 39.9677 17.1396C40.7501 17.1396 41.2794 17.7098 41.2794 18.5405V18.5404ZM39.123 18.5688C39.123 19.1675 39.4608 19.6196 39.9449 19.6196C40.4181 19.6196 40.7725 19.173 40.7725 18.5574C40.7725 18.0942 40.5417 17.5121 39.9561 17.5121C39.3765 17.5121 39.123 18.0547 39.123 18.5688ZM42.0386 17.936C42.0386 17.6481 42.0327 17.4219 42.0159 17.1961H42.4551L42.4832 17.6481H42.4944C42.6296 17.3937 42.9449 17.1396 43.3953 17.1396C43.7722 17.1396 44.358 17.3656 44.358 18.303V19.9302H43.8626V18.354C43.8626 17.9137 43.6993 17.5461 43.2321 17.5461C42.9111 17.5461 42.6576 17.7779 42.5679 18.0546C42.5451 18.1168 42.534 18.2014 42.534 18.2863V19.9302H42.0386V17.936Z" fill="#1A1F71"/>
</svg>
